<svg width="50" height="50" viewBox="0 0 50 50" fill="none" xmlns="http://www.w3.org/2000/svg">
<rect width="50" height="50" rx="10" fill="#029D9D"/>
<path d="M7.53888 23.0722C8.50857 19.0539 10.7543 15.4856 13.9186 12.9355C17.0829 10.3854 20.9837 9 25 9C29.0163 9 32.9171 10.3854 36.0814 12.9355C39.2457 15.4856 41.4914 19.0539 42.4611 23.0722H40.8839C38.2233 23.0318 35.6172 23.8516 33.4315 25.4165C33.3054 25.5107 33.1737 25.5967 33.0372 25.674H32.8532C32.7168 25.5967 32.5851 25.5107 32.4589 25.4165C30.254 23.8878 27.6571 23.0714 25 23.0714C22.3429 23.0714 19.746 23.8878 17.5411 25.4165C17.4149 25.5107 17.2832 25.5967 17.1468 25.674H16.9628C16.8263 25.5967 16.6946 25.5107 16.5685 25.4165C14.3828 23.8516 11.7767 23.0318 9.1161 23.0722H7.53888ZM38.0449 31.5686C38.8545 30.9185 39.858 30.5784 40.8839 30.6065H43V26.2566H40.8839C39.0769 26.2341 37.3114 26.814 35.8499 27.9098C35.0276 28.535 34.0327 28.8722 33.011 28.8722C31.9892 28.8722 30.9943 28.535 30.172 27.9098C28.6735 26.8345 26.8915 26.2579 25.0657 26.2579C23.24 26.2579 21.458 26.8345 19.9595 27.9098C19.1371 28.535 18.1423 28.8722 17.1205 28.8722C16.0987 28.8722 15.1039 28.535 14.2815 27.9098C12.8021 26.7999 11.0111 26.2194 9.18182 26.2566H7V30.6065H9.1161C10.142 30.5784 11.1455 30.9185 11.9551 31.5686C13.4508 32.6448 15.2308 33.2218 17.0548 33.2218C18.8787 33.2218 20.6587 32.6448 22.1544 31.5686C22.9651 30.9206 23.9678 30.5807 24.9934 30.6065C26.0197 30.5761 27.0238 30.9165 27.8324 31.5686C29.3309 32.6441 31.1129 33.2206 32.9387 33.2206C34.7644 33.2206 36.5464 32.6441 38.0449 31.5686ZM38.0449 39.3468C38.8545 38.6968 39.858 38.3566 40.8839 38.3847H43V34.0348H40.8839C39.0769 34.0124 37.3114 34.5922 35.8499 35.6881C35.0276 36.3132 34.0327 36.6504 33.011 36.6504C31.9892 36.6504 30.9943 36.3132 30.172 35.6881C28.6735 34.6127 26.8915 34.0362 25.0657 34.0362C23.24 34.0362 21.458 34.6127 19.9595 35.6881C19.1371 36.3132 18.1423 36.6504 17.1205 36.6504C16.0987 36.6504 15.1039 36.3132 14.2815 35.6881C12.8021 34.5782 11.0111 33.9976 9.18182 34.0348H7V38.3847H9.1161C10.142 38.3566 11.1455 38.6968 11.9551 39.3468C13.4508 40.423 15.2308 41 17.0548 41C18.8787 41 20.6587 40.423 22.1544 39.3468C22.9651 38.6988 23.9678 38.3589 24.9934 38.3847C26.0197 38.3543 27.0238 38.6947 27.8324 39.3468C29.3309 40.4223 31.1129 40.9988 32.9387 40.9988C34.7644 40.9988 36.5464 40.4223 38.0449 39.3468Z" fill="white"/>
</svg>
